<svg width="40" height="40" viewBox="0 0 40 40" fill="none" xmlns="http://www.w3.org/2000/svg">
<g id="24 / time / calendar-dates">
<path id="icon" fill-rule="evenodd" clip-rule="evenodd" d="M13.3333 10H9.99992V8.33334H6.66659V13.3333H33.3333V8.33334H29.9999V10H26.6666V8.33334H13.3333V10ZM33.3333 16.6667H6.66659V33.3333H33.3333V16.6667ZM26.6666 5.00001H13.3333V3.33334H9.99992V5.00001H6.66659C4.82564 5.00001 3.33325 6.49239 3.33325 8.33334V33.3333C3.33325 35.1743 4.82564 36.6667 6.66659 36.6667H33.3333C35.1742 36.6667 36.6666 35.1743 36.6666 33.3333V8.33334C36.6666 6.49239 35.1742 5.00001 33.3333 5.00001H29.9999V3.33334H26.6666V5.00001ZM14.9999 23.3333H11.6666V20H14.9999V23.3333ZM18.3333 23.3333H21.6666V20H18.3333V23.3333ZM28.3333 23.3333H24.9999V20H28.3333V23.3333ZM11.6666 30H14.9999V26.6667H11.6666V30ZM21.6666 30H18.3333V26.6667H21.6666V30Z" fill="#475FFF"/>
</g>
</svg>
