<svg width="40" height="40" viewBox="0 0 40 40" fill="none" xmlns="http://www.w3.org/2000/svg">
<g id="24 / time / time">
<path id="icon" fill-rule="evenodd" clip-rule="evenodd" d="M20.0001 38.3333C9.87486 38.3333 1.66675 30.1252 1.66675 20C1.66675 9.87477 9.87486 1.66666 20.0001 1.66666C30.1253 1.66666 38.3334 9.87477 38.3334 20C38.3334 30.1252 30.1253 38.3333 20.0001 38.3333ZM20.0001 35C28.2844 35 35.0001 28.2843 35.0001 20C35.0001 11.7157 28.2844 4.99999 20.0001 4.99999C11.7158 4.99999 5.00008 11.7157 5.00008 20C5.00008 28.2843 11.7158 35 20.0001 35ZM28.3334 18.3333H21.6667V9.99999H18.3334V21.6667H28.3334V18.3333Z" fill="#475FFF"/>
</g>
</svg>
