<svg width="40" height="40" viewBox="0 0 40 40" fill="none" xmlns="http://www.w3.org/2000/svg">
<g id="24 / symbols / github">
<path id="icon" fill-rule="evenodd" clip-rule="evenodd" d="M16.6954 33.3395C16.704 33.5442 16.682 33.744 16.6388 33.9462C16.5631 34.3015 16.4168 34.6776 16.2097 35.025C15.621 36.0126 14.6209 36.6716 13.3333 36.6716C10.3002 36.6716 9.10973 35.1835 7.61921 31.4572C6.60973 28.9335 6.1335 28.3383 5 28.3383L5 25.0049C8.03317 25.0049 9.22361 26.493 10.7141 30.2193C11.7236 32.743 12.1998 33.3383 13.3333 33.3383C13.3333 32.8547 13.3267 32.4263 13.3128 31.8461C13.2801 30.4865 13.2763 30.2089 13.3357 29.8454C13.3594 29.052 13.5642 28.4889 13.975 27.9301C10.2553 27.1204 7.74653 25.4481 6.30662 22.7357L5.76723 21.4672C5.24174 19.9571 5 18.2459 5 16.2698C5 13.9938 5.69391 11.9589 6.99003 10.2578C6.58571 8.64092 6.64108 6.66541 7.53385 4.43438L7.82557 3.70537L8.57345 3.46614C8.67358 3.43411 8.79531 3.40518 8.93832 3.38274C10.3946 3.15417 12.4668 3.69951 15.1759 5.43478C16.7729 5.06457 18.4547 4.87766 20.148 4.87766C21.6611 4.87766 23.1658 5.0302 24.6027 5.33094C27.2384 3.68038 29.2537 3.16271 30.6708 3.38303C30.8122 3.40501 30.9327 3.43338 31.032 3.46487L31.7845 3.70352L32.0766 4.43697C32.8576 6.3982 32.9916 8.20565 32.7074 9.78719C34.1974 11.575 35 13.773 35 16.2698C35 18.3747 34.8492 19.9574 34.4157 21.4972L33.9582 22.7528C32.7605 25.4623 30.1191 27.1534 26.0459 27.9588C26.4693 28.545 26.6667 29.1401 26.6667 30.0049V31.6716C26.6667 32.4793 26.6667 32.5041 26.6648 33.3383C26.6686 33.3982 26.6736 33.4275 26.6791 33.4458C26.6777 33.4462 26.6667 36.6716 26.6667 36.6716C25.247 36.6716 24.1914 35.9793 23.6723 34.8871C23.4031 34.3209 23.3227 33.7802 23.3333 33.3146V30.0049C23.3333 29.8652 23.3285 29.8571 22.9882 29.5168C22.0785 28.6071 21.6667 27.9207 21.6667 26.6716V25.1639L23.1668 25.0133C27.6322 24.5648 30.0609 23.3247 30.8661 21.5131L31.2424 20.4844C31.5419 19.4087 31.6667 18.0988 31.6667 16.2698C31.6667 14.3263 30.9882 12.7208 29.705 11.4381L28.9997 10.7331L29.2875 9.7783C29.5433 8.93007 29.6041 7.92636 29.3335 6.78154C29.2885 6.79293 29.2418 6.80534 29.1933 6.81884C28.3009 7.06729 27.1867 7.6004 25.8441 8.49786L25.2317 8.90719L24.5168 8.72992C23.134 8.38703 21.6481 8.211 20.148 8.211C18.4798 8.211 16.8308 8.42324 15.3074 8.83854L14.564 9.04121L13.928 8.60614C12.5394 7.65616 11.3858 7.09122 10.4607 6.82732C10.3946 6.80847 10.3317 6.79161 10.2719 6.77658C9.9492 8.10155 10.0769 9.19013 10.4037 10.007L10.7956 10.9864L10.0781 11.7597C8.93483 12.992 8.33333 14.4917 8.33333 16.2698C8.33333 17.8977 8.52391 19.2466 8.87314 20.2628L9.30928 21.2951C10.3996 23.341 12.7153 24.5718 16.8443 25.0144L18.3333 25.174V26.6716C18.3333 27.9207 17.9215 28.6071 17.0118 29.5168C16.6715 29.8571 16.6667 29.8652 16.6667 30.0049L16.6379 30.313C16.6189 30.4141 16.6189 30.675 16.6451 31.7661C16.6572 32.2679 16.6641 32.6651 16.6661 33.0801C16.686 33.166 16.689 33.2215 16.6954 33.3395Z" fill="#5173AB"/>
</g>
</svg>
