<svg width="40" height="40" viewBox="0 0 40 40" fill="none" xmlns="http://www.w3.org/2000/svg">
<g id="24 / symbols / instagram">
<path id="icon" fill-rule="evenodd" clip-rule="evenodd" d="M26.6667 3.33337H13.3333C7.8105 3.33337 3.33334 7.81053 3.33334 13.3334V26.6667C3.33334 32.1896 7.8105 36.6667 13.3333 36.6667H26.6667C32.1895 36.6667 36.6667 32.1896 36.6667 26.6667V13.3334C36.6667 7.81053 32.1895 3.33337 26.6667 3.33337ZM6.66668 13.3334C6.66668 9.65148 9.65144 6.66671 13.3333 6.66671H26.6667C30.3486 6.66671 33.3333 9.65148 33.3333 13.3334V26.6667C33.3333 30.3486 30.3486 33.3334 26.6667 33.3334H13.3333C9.65144 33.3334 6.66668 30.3486 6.66668 26.6667V13.3334ZM20 28.3334C15.3976 28.3334 11.6667 24.6024 11.6667 20C11.6667 15.3977 15.3976 11.6667 20 11.6667C24.6024 11.6667 28.3333 15.3977 28.3333 20C28.3333 24.6024 24.6024 28.3334 20 28.3334ZM20 25C22.7614 25 25 22.7615 25 20C25 17.2386 22.7614 15 20 15C17.2386 15 15 17.2386 15 20C15 22.7615 17.2386 25 20 25ZM30 11.6667C30 12.5872 29.2538 13.3334 28.3333 13.3334C27.4129 13.3334 26.6667 12.5872 26.6667 11.6667C26.6667 10.7462 27.4129 10 28.3333 10C29.2538 10 30 10.7462 30 11.6667Z" fill="#5173AB"/>
</g>
</svg>
