<svg width="40" height="40" viewBox="0 0 40 40" fill="none" xmlns="http://www.w3.org/2000/svg">
<g id="24 / symbols / youtube">
<path id="icon" fill-rule="evenodd" clip-rule="evenodd" d="M36.7079 30.2136C37.8467 28.2619 38.3333 25.1147 38.3333 19.9953C38.3333 14.8963 37.8513 11.7674 36.7003 9.76334C35.5469 7.68223 34.1788 7.02168 31.4638 6.86313C29.6103 6.7375 25.0038 6.66663 20.0044 6.66663C14.9943 6.66663 10.3857 6.73747 8.51833 6.86411C5.81852 7.02206 4.45017 7.68407 3.28654 9.77096C2.1523 11.7681 1.66666 14.9122 1.66666 20.014C1.66666 25.0867 2.15465 28.2466 3.29651 30.2372C4.44501 32.2973 5.79154 32.9513 8.51433 33.1425C10.4713 33.2571 15.3407 33.3333 20.0044 33.3333C24.6577 33.3333 29.5248 33.257 31.4638 33.1438C34.2117 32.9513 35.5579 32.2962 36.7079 30.2136ZM31.254 10.1898C32.9523 10.2891 33.2672 10.4417 33.8055 11.416C34.5892 12.7733 35 15.4295 35 20.014C35 24.5637 34.587 27.2346 33.8092 28.5683C33.269 29.5456 32.9563 29.6978 31.2501 29.8174C29.4149 29.9244 24.595 30 20.0044 30C15.4035 30 10.5812 29.9245 8.72837 29.8161C7.04334 29.6977 6.72607 29.5436 6.19788 28.5963C5.41476 27.2308 4.99999 24.545 4.99999 19.9953C4.99999 15.4483 5.41255 12.7773 6.19148 11.4057C6.7279 10.4437 7.04739 10.2892 8.72848 10.1908C10.5085 10.0701 15.0737 9.99996 20.0044 9.99996C24.9246 9.99996 29.4877 10.0702 31.254 10.1898ZM16.6667 15L25 20L16.6667 25V15Z" fill="#5173AB"/>
</g>
</svg>
