<svg width="30" height="30" viewBox="0 0 30 30" fill="none" xmlns="http://www.w3.org/2000/svg">
<g id="24 / security / lock">
<path id="icon" fill-rule="evenodd" clip-rule="evenodd" d="M8.75 8.75V12.5H7.5C6.16456 12.5 5 13.4705 5 14.7917V25.2083C5 26.5295 6.16456 27.5 7.5 27.5H22.5C23.8354 27.5 25 26.5295 25 25.2083V14.7917C25 13.4705 23.8354 12.5 22.5 12.5H21.25V8.75C21.25 5.29822 18.4518 2.5 15 2.5C11.5482 2.5 8.75 5.29822 8.75 8.75ZM18.75 8.75V12.5H11.25V8.75C11.25 6.67893 12.9289 5 15 5C17.0711 5 18.75 6.67893 18.75 8.75ZM7.49996 25V15H22.5V25H7.49996ZM16.25 20C16.25 20.6904 15.6904 21.25 15 21.25C14.3097 21.25 13.75 20.6904 13.75 20C13.75 19.3096 14.3097 18.75 15 18.75C15.6904 18.75 16.25 19.3096 16.25 20Z" fill="#475FFF"/>
</g>
</svg>
